<svg xmlns="http://www.w3.org/2000/svg" viewBox="0 0 382.15 284.12" width="350.15" height="252.12" fill="transparent"><defs><style>@import url('https://fonts.googleapis.com/css2?family=Caveat+Brush&amp;family=Source+Code+Pro&amp;family=Source+Sans+Pro&amp;family=Crimson+Pro&amp;display=block');</style></defs><g transform="translate(16, 16.67) rotate(0, 84.45, 123.73)"><g id="e8ad2873-772e-423f-3ae4-8e6a1fb3f78c_svg" class="tl-centered-g"><path d="M 76.15,247.77 Q 76.15,247.77 69.59,247.81 63.02,247.85 54.79,247.89 46.55,247.92 37.88,247.95 29.21,247.99 20.42,248.01 11.62,248.04 7.36,246.16 3.09,244.29 1.92,237.26 0.74,230.23 0.51,222.13 0.29,214.03 0.25,205.65 0.21,197.28 0.22,188.84 0.23,180.39 0.25,171.93 0.27,163.46 0.29,155.00 0.31,146.53 0.33,138.06 0.36,129.59 0.29,121.12 0.22,112.65 0.15,104.18 0.08,95.71 0.01,87.24 -0.05,78.77 -0.12,70.29 -0.19,61.82 -0.26,53.35 -0.33,44.88 -0.40,36.41 -0.47,27.94 -0.53,19.45 -0.60,10.96 1.26,6.76 3.13,2.57 10.41,1.46 17.69,0.36 26.11,0.20 34.53,0.04 43.24,0.06 51.95,0.08 60.73,0.15 69.52,0.21 78.33,0.22 87.14,0.23 95.95,0.16 104.76,0.10 113.58,0.04 122.39,-0.01 131.21,-0.08 140.02,-0.14 148.86,-0.20 157.70,-0.25 161.97,1.61 166.25,3.48 167.43,10.52 168.60,17.55 168.83,25.67 169.05,33.80 169.09,42.19 169.13,50.58 169.12,59.04 169.11,67.51 169.09,75.99 169.07,84.47 169.04,92.96 169.02,101.45 168.99,109.94 168.97,118.43 169.03,126.92 169.10,135.41 169.17,143.90 169.24,152.39 169.31,160.88 169.37,169.37 169.44,177.86 169.51,186.35 169.58,194.84 169.64,203.33 169.71,211.82 169.78,220.31 169.84,228.82 169.91,237.34 168.03,241.54 166.16,245.74 158.88,246.82 151.60,247.90 143.19,248.03 134.77,248.17 126.06,248.12 117.36,248.06 108.58,247.97 99.79,247.87 90.99,247.83 82.18,247.80 73.37,247.83 64.56,247.86 52.73,247.88 40.91,247.90 40.69,247.86 40.47,247.82 40.28,247.72 40.08,247.61 39.93,247.45 39.78,247.29 39.69,247.09 39.60,246.89 39.58,246.67 39.55,246.45 39.60,246.24 39.65,246.03 39.76,245.84 39.88,245.65 40.05,245.51 40.22,245.37 40.42,245.28 40.63,245.20 40.85,245.19 41.07,245.18 41.28,245.24 41.49,245.30 41.67,245.43 41.85,245.55 41.99,245.73 42.12,245.90 42.19,246.11 42.26,246.32 42.26,246.54 42.25,246.76 42.18,246.97 42.11,247.18 41.98,247.35 41.84,247.53 41.66,247.65 41.48,247.77 41.27,247.83 41.05,247.89 40.83,247.88 40.61,247.86 40.41,247.78 40.20,247.70 40.04,247.55 39.87,247.41 39.76,247.22 39.65,247.03 39.60,246.82 39.55,246.60 39.58,246.38 39.60,246.16 39.70,245.96 39.79,245.77 39.94,245.61 40.09,245.45 40.29,245.35 40.48,245.24 40.70,245.21 40.92,245.17 40.92,245.17 40.92,245.17 52.75,245.30 64.57,245.43 73.38,245.54 82.19,245.65 90.99,245.69 99.80,245.72 108.58,245.68 117.35,245.63 126.03,245.54 134.71,245.45 142.96,245.18 151.22,244.91 157.83,244.19 164.43,243.47 165.53,240.36 166.62,237.25 166.64,228.78 166.67,220.32 166.69,211.83 166.72,203.34 166.74,194.85 166.77,186.36 166.79,177.87 166.82,169.38 166.84,160.89 166.87,152.40 166.89,143.91 166.92,135.42 166.94,126.93 166.97,118.44 166.90,109.95 166.83,101.46 166.76,92.97 166.69,84.48 166.62,76.00 166.55,67.52 166.47,59.06 166.38,50.61 166.25,42.25 166.13,33.89 165.82,25.94 165.52,18.00 164.76,11.62 164.00,5.25 160.80,4.13 157.60,3.02 148.81,2.94 140.02,2.86 131.20,2.78 122.39,2.70 113.57,2.62 104.76,2.53 95.95,2.45 87.14,2.37 78.33,2.36 69.52,2.36 60.74,2.44 51.96,2.51 43.28,2.63 34.60,2.76 26.35,3.05 18.09,3.34 11.48,4.09 4.87,4.83 3.77,7.94 2.67,11.04 2.65,19.49 2.64,27.93 2.61,36.41 2.59,44.88 2.57,53.35 2.54,61.82 2.52,70.29 2.50,78.76 2.47,87.23 2.45,95.70 2.43,104.17 2.40,112.64 2.38,121.11 2.36,129.58 2.43,138.05 2.50,146.52 2.57,154.99 2.64,163.46 2.71,171.92 2.78,180.38 2.87,188.82 2.95,197.25 3.09,205.59 3.22,213.93 3.52,221.86 3.82,229.79 4.58,236.15 5.34,242.51 8.53,243.64 11.72,244.76 20.47,244.87 29.23,244.98 37.89,245.09 46.56,245.20 54.80,245.31 63.04,245.42 69.60,245.52 76.16,245.63 76.29,245.64 76.42,245.66 76.54,245.70 76.66,245.75 76.77,245.82 76.87,245.90 76.96,246.00 77.05,246.09 77.10,246.21 77.16,246.32 77.19,246.45 77.22,246.57 77.22,246.70 77.22,246.83 77.19,246.96 77.16,247.08 77.10,247.20 77.04,247.31 76.95,247.41 76.87,247.50 76.76,247.58 76.65,247.65 76.53,247.69 76.41,247.74 76.28,247.76 Z" fill="#1d1d1d" stroke="#1d1d1d" stroke-width="2" pointer-events="none"/></g><g font-size="28" font-family="Caveat Brush" text-align="left" fill="#1d1d1d" transform-origin="top left" transform="translate(76.455, 107.73)"><text y="18.2"/></g></g><g id="d9c32c0c-05ae-405a-2844-e7eec9e15c7c_svg" class="tl-centered-g" transform="translate(40.31999999999999, 89.28) rotate(0, 22.65, 51.95)"><g opacity="1"><path d="M 7.28,-1.51 Q 7.28,-1.51 12.27,2.89 17.26,7.30 21.84,12.04 26.42,16.77 30.72,21.63 35.03,26.50 37.58,30.29 40.14,34.08 41.40,36.33 42.65,38.59 43.31,39.81 43.97,41.04 44.24,42.60 44.50,44.16 42.87,46.02 41.24,47.87 38.84,51.15 36.44,54.42 32.35,59.29 28.27,64.15 23.63,69.35 18.98,74.56 16.02,78.85 13.05,83.15 11.11,86.41 9.17,89.68 7.94,91.93 6.71,94.18 5.73,95.89 4.74,97.61 4.15,99.00 3.55,100.40 2.38,102.31 1.20,104.22 1.01,104.39 0.82,104.56 0.59,104.65 0.36,104.75 0.11,104.77 -0.14,104.79 -0.38,104.73 -0.62,104.66 -0.84,104.52 -1.05,104.39 -1.20,104.19 -1.36,103.99 -1.44,103.75 -1.53,103.52 -1.53,103.26 -1.54,103.01 -1.46,102.77 -1.39,102.53 -1.24,102.33 -1.09,102.12 -0.88,101.98 -0.68,101.83 -0.43,101.76 -0.19,101.69 0.05,101.70 0.30,101.71 0.54,101.80 0.77,101.88 0.97,102.04 1.16,102.20 1.30,102.42 1.43,102.63 1.49,102.88 1.55,103.12 1.53,103.37 1.50,103.62 1.40,103.86 1.30,104.09 1.13,104.27 0.96,104.46 0.74,104.58 0.52,104.70 0.27,104.75 0.02,104.79 -0.22,104.76 -0.47,104.72 -0.69,104.61 -0.92,104.49 -1.09,104.31 -1.27,104.13 -1.38,103.91 -1.49,103.68 -1.52,103.43 -1.55,103.18 -1.50,102.93 -1.45,102.68 -1.33,102.47 -1.20,102.25 -1.20,102.25 -1.20,102.25 -0.01,100.73 1.16,99.21 1.94,97.83 2.73,96.45 3.69,94.76 4.66,93.07 5.89,90.77 7.11,88.47 9.07,85.11 11.02,81.76 14.03,77.31 17.05,72.86 21.61,67.64 26.17,62.41 30.11,57.57 34.04,52.73 36.44,49.23 38.84,45.73 40.07,44.51 41.30,43.29 40.86,41.57 40.43,39.85 39.18,37.73 37.92,35.61 35.40,32.02 32.88,28.43 28.53,23.71 24.18,18.99 19.59,14.48 14.99,9.97 9.84,5.74 4.69,1.51 4.53,1.34 4.36,1.16 4.25,0.95 4.13,0.74 4.07,0.51 4.01,0.27 4.00,0.03 4.00,-0.20 4.05,-0.43 4.11,-0.67 4.21,-0.88 4.32,-1.10 4.48,-1.28 4.63,-1.46 4.83,-1.60 5.02,-1.74 5.25,-1.83 5.47,-1.92 5.71,-1.96 5.95,-1.99 6.19,-1.97 6.43,-1.94 6.65,-1.86 6.88,-1.78 7.08,-1.65 Z" fill="#1d1d1d" stroke="#1d1d1d" stroke-width="1" stroke-linejoin="round" stroke-linecap="round" pointer-events="none"/></g></g><g id="94cd3826-4a63-4681-318c-d152c125b425_svg" class="tl-centered-g" transform="translate(88.29000000000002, 189.19) rotate(0, 26.32, 0.5)"><g opacity="1"><path d="M 0,-2.26 Q 0,-2.26 5.51,-2.11 11.03,-1.96 19.91,-1.69 28.78,-1.42 40.72,-1.15 52.66,-0.88 52.91,-0.84 53.15,-0.79 53.38,-0.67 53.60,-0.55 53.77,-0.36 53.94,-0.18 54.04,0.04 54.14,0.27 54.16,0.52 54.19,0.77 54.13,1.02 54.07,1.26 53.94,1.48 53.81,1.69 53.61,1.85 53.42,2.01 53.18,2.10 52.95,2.19 52.69,2.20 52.44,2.21 52.20,2.14 51.96,2.07 51.75,1.92 51.55,1.78 51.40,1.58 51.25,1.37 51.17,1.13 51.10,0.89 51.10,0.64 51.10,0.39 51.19,0.15 51.27,-0.08 51.43,-0.27 51.58,-0.47 51.79,-0.61 52.00,-0.75 52.25,-0.81 52.49,-0.87 52.74,-0.86 52.99,-0.84 53.23,-0.74 53.46,-0.65 53.65,-0.48 53.84,-0.31 53.96,-0.10 54.09,0.11 54.14,0.36 54.19,0.61 54.16,0.86 54.13,1.11 54.02,1.33 53.91,1.56 53.73,1.74 53.56,1.92 53.33,2.03 53.11,2.15 52.86,2.18 52.61,2.22 52.61,2.22 52.61,2.22 40.67,2.12 28.72,2.02 19.88,1.99 11.03,1.96 5.51,2.11 0,2.26 -0.27,2.23 -0.54,2.20 -0.79,2.10 -1.05,2.00 -1.27,1.85 -1.50,1.69 -1.68,1.49 -1.86,1.28 -1.99,1.04 -2.11,0.80 -2.18,0.53 -2.25,0.27 -2.25,-0.00 -2.25,-0.27 -2.18,-0.53 -2.11,-0.80 -1.99,-1.04 -1.86,-1.28 -1.68,-1.49 -1.50,-1.69 -1.27,-1.85 -1.05,-2.00 -0.79,-2.10 -0.54,-2.20 -0.27,-2.23 Z" fill="#1d1d1d" stroke="#1d1d1d" stroke-width="1" stroke-linejoin="round" stroke-linecap="round" pointer-events="none"/></g></g><g id="ddaf96ec-ceda-4e0a-3154-44e610e36c29_svg" class="tl-centered-g" transform="translate(157.59000000000003, 91.27) rotate(0, 31.98, 70.27)"><g opacity="1"><path d="M 7.02,-1.37 Q 7.02,-1.37 12.19,2.56 17.35,6.50 23.05,11.09 28.75,15.68 35.17,21.06 41.59,26.44 46.47,30.61 51.35,34.78 54.34,37.38 57.34,39.99 59.01,41.60 60.68,43.21 61.63,44.24 62.59,45.28 62.33,47.76 62.07,50.25 60.50,55.09 58.92,59.93 55.95,66.49 52.97,73.05 49.25,80.96 45.52,88.87 41.51,95.96 37.49,103.04 33.62,108.77 29.74,114.49 26.84,118.11 23.94,121.73 21.89,124.03 19.83,126.33 17.94,128.21 16.05,130.09 13.94,131.88 11.83,133.68 9.60,135.28 7.38,136.88 5.88,137.95 4.38,139.01 2.44,139.97 0.51,140.92 0.33,140.97 0.15,141.03 -0.02,141.02 -0.21,141.02 -0.39,140.96 -0.56,140.89 -0.71,140.77 -0.85,140.66 -0.95,140.50 -1.06,140.34 -1.10,140.16 -1.15,139.98 -1.13,139.79 -1.12,139.61 -1.04,139.44 -0.97,139.26 -0.84,139.12 -0.72,138.99 -0.56,138.89 -0.39,138.80 -0.21,138.77 -0.03,138.73 0.15,138.76 0.33,138.78 0.50,138.86 0.67,138.95 0.80,139.08 0.93,139.21 1.02,139.38 1.10,139.54 1.12,139.73 1.15,139.91 1.11,140.10 1.08,140.28 0.99,140.44 0.90,140.61 0.76,140.73 0.62,140.86 0.45,140.93 0.28,141.01 0.09,141.02 -0.09,141.04 -0.27,140.99 -0.45,140.95 -0.61,140.85 -0.77,140.75 -0.88,140.60 -1.00,140.45 -1.06,140.28 -1.13,140.10 -1.13,139.92 -1.14,139.73 -1.09,139.55 -1.03,139.37 -0.92,139.22 -0.81,139.07 -0.66,138.96 -0.51,138.85 -0.51,138.85 -0.51,138.85 1.27,137.95 3.06,137.05 4.58,136.08 6.10,135.11 8.25,133.56 10.40,132.01 12.45,130.26 14.49,128.52 16.33,126.69 18.17,124.85 20.18,122.59 22.19,120.33 25.02,116.77 27.86,113.22 31.67,107.56 35.48,101.91 39.43,94.89 43.38,87.87 47.07,79.96 50.75,72.05 53.63,65.60 56.51,59.16 57.98,54.50 59.44,49.85 59.25,47.38 59.05,44.92 57.40,43.38 55.75,41.83 52.73,39.27 49.72,36.71 44.80,32.60 39.89,28.49 33.43,23.20 26.98,17.91 21.24,13.45 15.51,8.99 10.24,5.18 4.97,1.37 4.82,1.23 4.67,1.09 4.56,0.92 4.45,0.74 4.38,0.54 4.31,0.35 4.29,0.14 4.28,-0.05 4.31,-0.26 4.34,-0.46 4.42,-0.66 4.50,-0.85 4.63,-1.01 4.75,-1.18 4.91,-1.31 5.07,-1.44 5.25,-1.53 5.44,-1.62 5.64,-1.66 5.85,-1.71 6.05,-1.70 6.26,-1.69 6.46,-1.64 6.66,-1.58 6.84,-1.48 Z" fill="#1d1d1d" stroke="#1d1d1d" stroke-width="1" stroke-linejoin="round" stroke-linecap="round" pointer-events="none"/></g></g><g transform="translate(243.21000000000004, 16) rotate(0, 60.47, 126.06)"><g id="d412edb2-a0e0-4eb6-201b-54aed7f07c70_svg" class="tl-centered-g"><path d="M 120.53,91.35 Q 120.53,91.35 120.49,97.82 120.45,104.29 120.41,112.41 120.38,120.52 120.43,129.06 120.49,137.60 120.54,146.24 120.60,154.89 120.66,163.56 120.71,172.23 120.77,180.91 120.83,189.59 120.88,198.27 120.94,206.95 121.00,215.63 121.05,224.31 121.10,233.02 121.16,241.72 119.29,245.96 117.43,250.21 110.82,251.30 104.20,252.38 96.62,252.51 89.04,252.64 81.22,252.59 73.39,252.53 65.51,252.52 57.62,252.50 49.71,252.57 41.80,252.64 33.89,252.71 25.98,252.78 18.04,252.84 10.11,252.90 6.06,251.02 2.01,249.14 0.93,241.96 -0.15,234.79 -0.31,226.51 -0.48,218.24 -0.48,209.68 -0.47,201.12 -0.42,192.48 -0.36,183.85 -0.30,175.19 -0.24,166.54 -0.17,157.87 -0.11,149.21 -0.04,140.55 0.02,131.89 -0.00,123.23 -0.02,114.56 -0.05,105.90 -0.08,97.24 -0.10,88.58 -0.13,79.91 -0.15,71.25 -0.18,62.59 -0.21,53.92 -0.23,45.26 -0.26,36.60 -0.28,27.94 -0.30,19.25 -0.33,10.57 1.53,6.33 3.39,2.10 9.96,0.98 16.54,-0.12 24.06,-0.29 31.59,-0.45 39.35,-0.43 47.12,-0.41 54.94,-0.44 62.77,-0.46 70.62,-0.57 78.46,-0.68 86.31,-0.78 94.16,-0.89 102.04,-0.98 109.92,-1.08 113.95,0.78 117.98,2.65 119.09,9.83 120.19,17.01 120.39,25.31 120.58,33.60 120.60,42.18 120.63,50.76 120.60,59.41 120.58,68.07 120.55,76.74 120.52,85.42 120.48,94.10 120.45,102.78 120.41,111.46 120.37,120.14 120.43,128.82 120.49,137.50 120.55,149.15 120.61,160.81 120.58,161.00 120.55,161.18 120.46,161.35 120.37,161.52 120.23,161.66 120.09,161.79 119.91,161.87 119.74,161.95 119.55,161.97 119.36,161.99 119.17,161.95 118.98,161.91 118.82,161.81 118.65,161.71 118.53,161.57 118.41,161.42 118.33,161.24 118.26,161.06 118.25,160.87 118.24,160.68 118.29,160.50 118.34,160.31 118.45,160.15 118.56,159.99 118.71,159.88 118.87,159.76 119.05,159.70 119.23,159.64 119.42,159.64 119.61,159.64 119.79,159.70 119.98,159.76 120.13,159.88 120.28,159.99 120.39,160.15 120.50,160.31 120.55,160.49 120.60,160.68 120.59,160.87 120.58,161.06 120.51,161.24 120.44,161.42 120.31,161.56 120.19,161.71 120.03,161.81 119.86,161.91 119.67,161.95 119.49,161.99 119.30,161.97 119.11,161.95 118.93,161.87 118.76,161.79 118.62,161.66 118.48,161.53 118.39,161.36 118.30,161.19 118.27,161.00 118.24,160.81 118.24,160.81 118.24,160.81 118.27,149.16 118.30,137.50 118.34,128.82 118.37,120.14 118.32,111.46 118.26,102.78 118.20,94.10 118.15,85.42 118.09,76.75 118.03,68.07 117.95,59.43 117.88,50.78 117.77,42.23 117.66,33.69 117.38,25.55 117.10,17.42 116.41,10.91 115.72,4.40 112.77,3.29 109.82,2.19 101.99,2.11 94.17,2.03 86.32,1.95 78.47,1.87 70.62,1.79 62.78,1.71 54.96,1.74 47.14,1.76 39.41,1.93 31.68,2.09 24.33,2.43 16.98,2.76 11.09,3.55 5.20,4.33 4.07,7.50 2.95,10.66 2.88,19.30 2.82,27.94 2.75,36.61 2.69,45.27 2.62,53.93 2.55,62.59 2.49,71.26 2.42,79.92 2.35,88.58 2.29,97.24 2.22,105.91 2.15,114.57 2.09,123.23 2.02,131.89 2.04,140.56 2.07,149.22 2.10,157.88 2.12,166.54 2.15,175.19 2.18,183.85 2.22,192.48 2.27,201.11 2.35,209.63 2.43,218.16 2.68,226.28 2.93,234.40 3.61,240.89 4.28,247.39 7.25,248.51 10.22,249.62 18.10,249.73 25.99,249.85 33.90,249.97 41.81,250.09 49.72,250.20 57.62,250.32 65.50,250.33 73.38,250.34 81.18,250.21 88.97,250.09 96.37,249.79 103.78,249.49 109.71,248.73 115.65,247.97 116.76,244.80 117.87,241.64 117.91,232.98 117.94,224.32 117.97,215.64 118.01,206.96 118.05,198.27 118.08,189.59 118.12,180.91 118.16,172.24 118.19,163.56 118.23,154.89 118.27,146.25 118.30,137.60 118.34,129.06 118.38,120.53 118.32,112.41 118.26,104.29 118.21,97.82 118.16,91.36 118.17,91.21 118.19,91.07 118.24,90.94 118.29,90.81 118.37,90.69 118.45,90.57 118.56,90.48 118.67,90.38 118.79,90.31 118.92,90.25 119.06,90.21 119.20,90.18 119.34,90.18 119.48,90.18 119.62,90.21 119.76,90.25 119.89,90.31 120.01,90.38 120.12,90.47 120.23,90.57 120.31,90.69 120.39,90.80 120.44,90.94 120.49,91.07 120.51,91.21 Z" fill="#1d1d1d" stroke="#1d1d1d" stroke-width="2" pointer-events="none"/></g><g font-size="28" font-family="Caveat Brush" text-align="left" fill="#1d1d1d" transform-origin="top left" transform="translate(52.47, 110.06)"><text y="18.2"/></g></g><g transform="translate(290.18999999999994, 223.82) rotate(0, 14.32, 14.32)"><g id="dcaafa0e-ec97-4b2c-2fbb-c2a053a249ae_svg" class="tl-centered-g"><path d="M 24.91,2.98 Q 24.91,2.98 26.74,4.16 28.57,5.34 29.61,7.86 30.65,10.38 30.57,14.10 30.50,17.83 28.59,21.85 26.68,25.88 22.59,28.57 18.50,31.27 13.30,30.85 8.11,30.42 4.11,26.44 0.12,22.46 -0.60,16.57 -1.34,10.68 1.50,5.72 4.34,0.76 9.17,-1.11 14.01,-2.99 18.52,-1.59 23.04,-0.18 25.78,3.10 28.53,6.40 29.29,9.92 30.04,13.45 29.33,16.05 28.62,18.65 28.61,18.65 28.61,18.65 28.60,18.65 28.60,18.64 28.41,16.25 28.23,13.85 27.44,10.81 26.65,7.78 24.38,4.86 22.12,1.94 18.31,0.60 14.50,-0.73 10.34,0.75 6.18,2.24 3.63,6.47 1.08,10.71 1.61,15.83 2.13,20.96 5.44,24.43 8.76,27.91 13.04,28.34 17.32,28.76 20.67,26.57 24.03,24.37 25.58,21.03 27.12,17.68 27.07,14.63 27.01,11.57 26.41,9.40 25.81,7.22 25.35,5.10 Z" fill="#1d1d1d" stroke="#1d1d1d" stroke-width="2" pointer-events="none" stroke-linecap="round" stroke-linejoin="round"/></g><g font-size="28" font-family="Caveat Brush" text-align="left" fill="#1d1d1d" transform-origin="top left" transform="translate(6.3250000000000455, -1.6799999999999784)"><text y="18.2"/></g></g><g id="95c7e01c-9bf2-4dac-1093-28b652292338_svg" class="tl-centered-g" transform="translate(234.22000000000003, 215.17) rotate(0, 65.96, 2)"><g opacity="1"><path d="M 131.85,5.59 Q 131.85,5.59 125.88,5.22 119.92,4.85 109.91,4.19 99.90,3.53 89.17,3.00 78.44,2.48 69.23,2.18 60.03,1.89 52.11,1.72 44.19,1.55 37.89,1.61 31.59,1.66 26.78,1.83 21.96,2.01 18.41,2.25 14.87,2.49 11.87,2.78 8.87,3.06 7.10,3.40 5.33,3.74 3.13,4.23 0.93,4.73 0.69,4.74 0.46,4.75 0.24,4.68 0.02,4.61 -0.16,4.47 -0.35,4.34 -0.48,4.15 -0.62,3.96 -0.69,3.74 -0.76,3.52 -0.75,3.29 -0.74,3.06 -0.66,2.84 -0.58,2.62 -0.44,2.44 -0.29,2.26 -0.10,2.13 0.09,2.01 0.31,1.95 0.54,1.90 0.77,1.92 1.00,1.93 1.21,2.03 1.43,2.12 1.60,2.27 1.77,2.43 1.89,2.63 2.00,2.83 2.04,3.06 2.09,3.29 2.06,3.52 2.03,3.75 1.92,3.95 1.82,4.16 1.66,4.32 1.49,4.49 1.28,4.59 1.08,4.70 0.85,4.73 0.62,4.76 0.39,4.71 0.16,4.67 -0.03,4.56 -0.23,4.44 -0.39,4.27 -0.54,4.10 -0.63,3.88 -0.73,3.67 -0.74,3.44 -0.76,3.21 -0.71,2.98 -0.65,2.76 -0.53,2.56 -0.40,2.37 -0.22,2.22 -0.04,2.08 0.17,2.00 0.38,1.92 0.38,1.92 0.38,1.92 2.66,1.66 4.94,1.40 6.80,1.12 8.66,0.84 11.68,0.55 14.71,0.25 18.29,-0.00 21.87,-0.26 26.72,-0.46 31.57,-0.65 37.90,-0.73 44.24,-0.82 52.17,-0.69 60.10,-0.56 69.33,-0.31 78.56,-0.07 89.31,0.37 100.07,0.82 110.07,1.38 120.07,1.95 126.04,2.17 132.00,2.40 132.19,2.44 132.38,2.47 132.56,2.55 132.73,2.62 132.89,2.74 133.04,2.86 133.16,3.01 133.28,3.16 133.36,3.33 133.44,3.50 133.48,3.69 133.51,3.88 133.50,4.07 133.50,4.27 133.44,4.45 133.38,4.63 133.29,4.80 133.19,4.96 133.06,5.10 132.92,5.24 132.76,5.34 132.59,5.44 132.41,5.50 132.23,5.56 132.04,5.57 Z" fill="#1d1d1d" stroke="#1d1d1d" stroke-width="1" stroke-linejoin="round" stroke-linecap="round" pointer-events="none"/></g></g><g id="363a2bcc-7890-4649-18b6-3f5d38e387b4_svg" class="tl-centered-g" transform="translate(232.22000000000003, 37.99) rotate(0, 59.3, 5.66)"><g opacity="1"><path d="M 118.26,13.09 Q 118.26,13.09 112.01,11.80 105.77,10.51 96.98,9.04 88.19,7.57 74.27,6.16 60.34,4.74 49.08,4.09 37.81,3.45 30.26,3.38 22.71,3.32 18.09,3.42 13.48,3.53 10.80,3.74 8.12,3.94 6.36,4.24 4.61,4.54 2.32,4.99 0.04,5.44 -0.19,5.41 -0.42,5.38 -0.63,5.28 -0.85,5.17 -1.01,5.00 -1.18,4.84 -1.29,4.63 -1.39,4.41 -1.42,4.18 -1.45,3.95 -1.41,3.71 -1.37,3.48 -1.25,3.28 -1.13,3.07 -0.96,2.91 -0.78,2.76 -0.57,2.66 -0.35,2.57 -0.11,2.55 0.11,2.53 0.34,2.59 0.57,2.64 0.77,2.77 0.97,2.90 1.12,3.08 1.27,3.27 1.35,3.49 1.43,3.71 1.44,3.95 1.44,4.18 1.37,4.41 1.30,4.63 1.17,4.83 1.03,5.02 0.84,5.16 0.64,5.29 0.42,5.36 0.19,5.43 -0.03,5.43 -0.27,5.42 -0.49,5.34 -0.71,5.26 -0.90,5.11 -1.08,4.96 -1.21,4.76 -1.34,4.56 -1.39,4.33 -1.45,4.10 -1.43,3.87 -1.41,3.63 -1.32,3.42 -1.23,3.20 -1.07,3.02 -0.91,2.85 -0.70,2.73 -0.50,2.61 -0.27,2.57 -0.04,2.53 -0.04,2.53 -0.04,2.53 2.10,2.31 4.24,2.10 6.09,1.86 7.93,1.62 10.67,1.38 13.41,1.15 18.07,1.00 22.72,0.85 30.34,0.86 37.95,0.87 49.28,1.45 60.61,2.02 74.63,3.34 88.65,4.67 97.51,6.01 106.38,7.35 112.65,8.44 118.93,9.54 119.14,9.61 119.35,9.67 119.53,9.79 119.72,9.90 119.87,10.06 120.02,10.21 120.13,10.40 120.25,10.59 120.31,10.79 120.37,11.00 120.38,11.22 120.40,11.44 120.36,11.65 120.31,11.86 120.22,12.06 120.13,12.26 120.00,12.43 119.86,12.60 119.69,12.73 119.52,12.87 119.32,12.95 119.12,13.04 118.91,13.08 118.69,13.12 118.47,13.10 Z" fill="#1d1d1d" stroke="#1d1d1d" stroke-width="1" stroke-linejoin="round" stroke-linecap="round" pointer-events="none"/></g></g><g id="95db9f7f-30d6-4cd8-1106-b12bb98ba439_svg" class="tl-centered-g" transform="translate(261.53999999999996, 65.30) rotate(0, 20.32, 0.66)"><g opacity="1"><path d="M 0,-1.96 Q 0,-1.96 3.27,-1.84 6.55,-1.73 12.26,-1.49 17.97,-1.26 22.45,-1.11 26.93,-0.97 29.88,-0.72 32.84,-0.48 34.60,-0.40 36.36,-0.31 38.09,-0.51 39.81,-0.71 40.04,-0.70 40.26,-0.68 40.47,-0.60 40.68,-0.52 40.85,-0.37 41.02,-0.23 41.13,-0.04 41.25,0.14 41.29,0.36 41.34,0.58 41.32,0.80 41.30,1.02 41.20,1.23 41.11,1.43 40.95,1.59 40.80,1.75 40.60,1.86 40.41,1.96 40.19,2.00 39.97,2.04 39.75,2.00 39.53,1.96 39.33,1.86 39.13,1.75 38.98,1.59 38.82,1.43 38.73,1.23 38.64,1.03 38.61,0.80 38.59,0.58 38.63,0.36 38.68,0.14 38.80,-0.04 38.91,-0.23 39.08,-0.37 39.25,-0.52 39.46,-0.60 39.67,-0.68 39.89,-0.69 40.11,-0.71 40.33,-0.65 40.54,-0.59 40.73,-0.46 40.91,-0.34 41.05,-0.16 41.18,0.01 41.26,0.22 41.33,0.43 41.33,0.65 41.33,0.88 41.26,1.09 41.18,1.30 41.05,1.48 40.91,1.66 40.73,1.78 40.55,1.91 40.33,1.97 40.11,2.03 40.12,2.03 40.12,2.03 38.16,2.23 36.20,2.44 34.43,2.31 32.66,2.18 29.77,2.03 26.87,1.88 22.38,1.87 17.89,1.85 12.22,1.79 6.55,1.73 3.27,1.84 0,1.96 -0.23,1.93 -0.47,1.90 -0.69,1.82 -0.91,1.73 -1.10,1.60 -1.30,1.47 -1.45,1.29 -1.61,1.11 -1.72,0.90 -1.83,0.69 -1.89,0.46 -1.95,0.23 -1.95,-0.00 -1.95,-0.23 -1.89,-0.46 -1.83,-0.69 -1.72,-0.90 -1.61,-1.11 -1.45,-1.29 -1.30,-1.47 -1.10,-1.60 -0.91,-1.73 -0.69,-1.82 -0.46,-1.90 -0.23,-1.93 Z" fill="#1d1d1d" stroke="#1d1d1d" stroke-width="1" stroke-linejoin="round" stroke-linecap="round" pointer-events="none"/></g></g><g id="8974e30c-b8c7-4bc7-265e-c1a2d9750660_svg" class="tl-centered-g" transform="translate(264.87, 82.61) rotate(0, 26.65, 3)"><g opacity="1"><path d="M 0.13,3.35 Q 0.13,3.35 2.35,3.62 4.58,3.88 8.90,4.05 13.22,4.22 19.54,3.30 25.85,2.38 31.99,1.87 38.13,1.36 45.60,0.05 53.07,-1.25 53.28,-1.25 53.48,-1.25 53.68,-1.19 53.87,-1.13 54.04,-1.01 54.21,-0.88 54.32,-0.72 54.44,-0.55 54.50,-0.35 54.56,-0.15 54.55,0.04 54.54,0.25 54.47,0.44 54.39,0.63 54.26,0.79 54.13,0.95 53.96,1.06 53.78,1.17 53.58,1.22 53.38,1.26 53.18,1.25 52.97,1.23 52.78,1.14 52.60,1.06 52.45,0.92 52.29,0.78 52.19,0.60 52.10,0.42 52.06,0.22 52.02,0.01 52.05,-0.18 52.08,-0.38 52.18,-0.57 52.27,-0.75 52.42,-0.89 52.57,-1.04 52.75,-1.13 52.94,-1.22 53.14,-1.24 53.34,-1.27 53.55,-1.23 53.75,-1.18 53.93,-1.08 54.10,-0.98 54.24,-0.82 54.38,-0.67 54.45,-0.48 54.53,-0.29 54.55,-0.08 54.56,0.11 54.51,0.31 54.46,0.51 54.34,0.68 54.23,0.86 54.07,0.98 53.91,1.11 53.71,1.18 53.52,1.25 53.52,1.25 53.52,1.25 45.95,2.64 38.38,4.03 32.34,4.62 26.29,5.22 19.73,6.29 13.17,7.36 8.76,7.36 4.35,7.37 2.11,7.33 -0.13,7.30 -0.36,7.26 -0.60,7.21 -0.81,7.11 -1.03,7.01 -1.22,6.87 -1.41,6.72 -1.55,6.53 -1.70,6.34 -1.79,6.12 -1.89,5.90 -1.93,5.67 -1.97,5.43 -1.96,5.19 -1.94,4.95 -1.87,4.73 -1.80,4.50 -1.67,4.30 -1.55,4.09 -1.38,3.92 -1.21,3.76 -1.00,3.63 -0.80,3.51 -0.57,3.44 -0.34,3.37 -0.10,3.36 Z" fill="#1d1d1d" stroke="#1d1d1d" stroke-width="1" stroke-linejoin="round" stroke-linecap="round" pointer-events="none"/></g></g><g id="43abfb05-16d1-444c-0e17-41247cc3a459_svg" class="tl-centered-g" transform="translate(260.87, 123.25) rotate(0, 0.5, 0.5)"><circle r="3" fill="#1d1d1d" stroke="#1d1d1d" pointer-events="all" opacity="1"/></g><g id="7ee5262b-c394-483e-33c3-2403f9b0d55a_svg" class="tl-centered-g" transform="translate(278.18999999999994, 95.94) rotate(0, 13.66, 12.32)"><g opacity="1"><path d="M -1.52,22.96 Q -1.52,22.96 2.00,19.94 5.53,16.93 10.21,13.03 14.88,9.14 20.57,3.99 26.26,-1.14 26.47,-1.28 26.68,-1.42 26.92,-1.48 27.17,-1.54 27.42,-1.53 27.67,-1.51 27.90,-1.41 28.13,-1.32 28.32,-1.15 28.51,-0.99 28.64,-0.77 28.77,-0.55 28.82,-0.31 28.87,-0.06 28.84,0.18 28.81,0.43 28.70,0.66 28.59,0.88 28.42,1.06 28.24,1.25 28.02,1.36 27.79,1.48 27.54,1.51 27.30,1.55 27.05,1.51 26.80,1.46 26.58,1.34 26.36,1.22 26.19,1.04 26.02,0.85 25.91,0.62 25.81,0.39 25.79,0.14 25.76,-0.10 25.82,-0.34 25.88,-0.59 26.01,-0.80 26.14,-1.02 26.34,-1.18 26.53,-1.34 26.76,-1.43 27.00,-1.52 27.25,-1.53 27.50,-1.54 27.74,-1.47 27.99,-1.40 28.19,-1.26 28.40,-1.11 28.55,-0.91 28.70,-0.71 28.78,-0.47 28.85,-0.23 28.85,0.01 28.85,0.27 28.76,0.50 28.68,0.74 28.53,0.94 28.37,1.14 28.37,1.14 28.37,1.14 22.76,6.45 17.14,11.75 12.66,15.79 8.18,19.82 4.85,23.07 1.52,26.31 1.30,26.47 1.08,26.63 0.82,26.73 0.57,26.83 0.30,26.86 0.03,26.90 -0.23,26.87 -0.50,26.84 -0.76,26.75 -1.02,26.66 -1.25,26.51 -1.47,26.35 -1.66,26.15 -1.84,25.95 -1.97,25.71 -2.10,25.47 -2.17,25.21 -2.24,24.94 -2.24,24.67 -2.25,24.39 -2.19,24.13 -2.13,23.86 -2.00,23.62 -1.88,23.37 -1.70,23.17 Z" fill="#1d1d1d" stroke="#1d1d1d" stroke-width="1" stroke-linejoin="round" stroke-linecap="round" pointer-events="none"/></g></g><g id="d9f9df65-2b1f-48ec-231b-21f062feb3b2_svg" class="tl-centered-g" transform="translate(304.85, 110.59) rotate(0, 12.66, 1)"><g opacity="1"><path d="M -0.21,-0.42 Q -0.21,-0.42 3.23,-0.55 6.67,-0.67 15.92,-1.25 25.18,-1.82 25.47,-1.79 25.77,-1.77 26.04,-1.65 26.31,-1.53 26.53,-1.33 26.75,-1.13 26.89,-0.87 27.03,-0.62 27.09,-0.33 27.14,-0.03 27.10,0.25 27.06,0.54 26.93,0.81 26.79,1.07 26.58,1.28 26.37,1.49 26.11,1.62 25.84,1.74 25.55,1.78 25.26,1.82 24.97,1.76 24.68,1.71 24.42,1.56 24.16,1.41 23.97,1.19 23.77,0.97 23.65,0.70 23.54,0.43 23.52,0.13 23.49,-0.15 23.57,-0.44 23.64,-0.73 23.80,-0.97 23.96,-1.22 24.19,-1.41 24.42,-1.59 24.70,-1.69 24.98,-1.79 25.28,-1.80 25.57,-1.80 25.85,-1.72 26.14,-1.63 26.38,-1.45 26.61,-1.28 26.79,-1.04 26.96,-0.80 27.04,-0.51 27.13,-0.23 27.12,0.05 27.11,0.35 27.00,0.63 26.90,0.90 26.71,1.13 26.53,1.36 26.28,1.52 26.03,1.68 25.74,1.75 25.45,1.82 25.45,1.82 25.45,1.82 16.24,2.65 7.03,3.48 3.62,3.95 0.21,4.42 -0.08,4.41 -0.37,4.40 -0.65,4.32 -0.94,4.24 -1.19,4.10 -1.45,3.95 -1.66,3.75 -1.87,3.55 -2.03,3.30 -2.19,3.05 -2.28,2.77 -2.38,2.50 -2.40,2.20 -2.43,1.91 -2.38,1.62 -2.34,1.33 -2.22,1.06 -2.11,0.79 -1.94,0.55 -1.76,0.32 -1.54,0.13 -1.31,-0.05 -1.04,-0.17 -0.78,-0.30 -0.49,-0.36 Z" fill="#1d1d1d" stroke="#1d1d1d" stroke-width="1" stroke-linejoin="round" stroke-linecap="round" pointer-events="none"/></g></g></svg>